<?xml version="1.0" encoding="UTF-8"?>
<svg width="500px" height="141px" viewBox="0 0 500 141" version="1.1" xmlns="http://www.w3.org/2000/svg" xmlns:xlink="http://www.w3.org/1999/xlink">
    <!-- Generator: Sketch 64 (93537) - https://sketch.com -->
    <title>OQS_logo_with_text</title>
    <desc>Created with Sketch.</desc>
    <defs>
        <linearGradient x1="12.1924008%" y1="16.4684217%" x2="50%" y2="50%" id="linearGradient-1">
            <stop stop-color="#FFC000" offset="0%"></stop>
            <stop stop-color="#EB6E19" offset="100%"></stop>
        </linearGradient>
        <path d="M70.5,0 C109.436075,0 141,31.5639251 141,70.5 C141,78.9096675 139.527537,86.9754229 136.826363,94.4535145 C131.458426,85.2127681 121.454748,79 110,79 C92.8791728,79 79,92.8791728 79,110 C79,121.454748 85.2127681,131.458426 94.4524738,136.825203 C86.9754229,139.527537 78.9096675,141 70.5,141 C31.5639251,141 0,109.436075 0,70.5 C0,31.5639251 31.5639251,0 70.5,0 Z" id="path-2"></path>
        <linearGradient x1="18.4757788%" y1="4.3658093%" x2="51.8737389%" y2="52.3710624%" id="linearGradient-3">
            <stop stop-color="#FFC000" offset="0%"></stop>
            <stop stop-color="#EB7423" offset="100%"></stop>
        </linearGradient>
        <path d="M250.477302,4.07530744 C257.612151,3.9058657 261.520059,10.5223304 261.520059,17.3094134 C261.349228,25.4532071 259.480689,29.695134 250.816608,29.8645758 C242.153704,30.0340175 196.796281,30.0340175 186.77262,30.0340175 C176.750136,30.0340175 175.220903,38.6873131 175.390556,43.7776254 C175.561387,48.8679377 176.580483,57.8601168 186.602967,57.8601168 C196.62545,57.8601168 208.687304,58.368442 231.110946,58.1990003 C253.535767,58.0295585 268.654908,74.1477041 268.994214,97.7318765 C269.33352,121.314872 254.724516,136.755251 231.790736,136.924693 C208.856957,137.094134 169.275981,136.924693 161.970301,136.924693 C154.665799,136.924693 150.928722,131.326055 150.928722,123.521145 C150.928722,115.716235 154.496147,111.474308 160.781553,111.304866 C167.066959,111.135424 226.015467,111.474308 231.45143,111.474308 C236.887394,111.474308 242.832316,105.87567 242.832316,98.4108201 C242.832316,90.9447934 240.963777,83.9882686 232.809832,83.4799434 C224.655887,82.9704415 210.046884,83.309325 185.244565,83.309325 C164.859114,83.8188269 146.172549,68.2090065 146.001718,43.9470672 C145.832065,19.6851278 158.233224,4.92369282 181.677141,4.07530744 C202.741203,3.9058657 241.81322,4.07530744 250.477302,4.07530744 Z" id="path-4"></path>
    </defs>
    <g id="OQS_logo_with_text" stroke="none" stroke-width="1" fill="none" fill-rule="evenodd">
        <g id="Group-3" transform="translate(4.000000, 0.000000)">
            <g id="Group-2">
                <g id="Group">
                    <g id="OQS_logo">
                        <g id="Combined-Shape">
                            <use fill="#EC7423" xlink:href="#path-2"></use>
                            <use fill="url(#linearGradient-1)" xlink:href="#path-2"></use>
                        </g>
                        <circle id="Oval" fill="#EB6E19" cx="110.5" cy="110.5" r="14.5"></circle>
                    </g>
                </g>
                <g id="Merged-logo-large-path">
                    <use fill="#EB7423" xlink:href="#path-4"></use>
                    <use fill="url(#linearGradient-3)" xlink:href="#path-4"></use>
                </g>
            </g>
            <text id="Orange-Quantum-Syste" font-family="Raleway-Regular, Raleway" font-size="40" font-weight="normal" fill="#EB7423">
                <tspan x="289" y="38">Orange </tspan>
                <tspan x="289" y="85">Quantum</tspan>
                <tspan x="289" y="132">Systems </tspan>
            </text>
        </g>
    </g>
</svg>