<?xml version="1.0" encoding="utf-8"?>
<!-- Generator: Adobe Illustrator 26.2.1, SVG Export Plug-In . SVG Version: 6.00 Build 0)  -->
<svg version="1.1" id="Layer_1" xmlns="http://www.w3.org/2000/svg" xmlns:xlink="http://www.w3.org/1999/xlink" x="0px" y="0px"
	 viewBox="0 0 1159.4 192.8" style="enable-background:new 0 0 1159.4 192.8;" xml:space="preserve">
<style type="text/css">
	.st0{fill:none;}
	.st1{fill:#00ACEC;}
	.st2{fill:#CC2529;}
	.st3{fill:#5E535B;}
	.st4{fill:#FFFFFF;}
</style>
<rect x="187.1" y="-187.1" transform="matrix(-1.836970e-16 1 -1 -1.836970e-16 379.8425 -187.0866)" class="st0" width="192.8" height="566.9"/>
<g>
	<g>
		<polygon class="st1" points="129.3,86.5 132.9,86.5 134.7,83.3 132.9,80.2 129.3,80.2 127.5,83.3 		"/>
		<polygon class="st1" points="118,106 121.7,106 123.5,102.8 121.7,99.7 118,99.7 116.2,102.8 		"/>
		<polygon class="st2" points="88.4,105.4 83.9,105.4 81.6,109.3 83.9,113.2 88.4,113.2 90.6,109.3 		"/>
		<polygon class="st2" points="88.4,79.4 83.9,79.4 81.6,83.3 83.9,87.2 88.4,87.2 90.6,83.3 		"/>
		<polygon class="st2" points="88.4,66.4 83.9,66.4 81.6,70.3 83.9,74.2 88.4,74.2 90.6,70.3 		"/>
		<polygon class="st2" points="88.4,53.4 83.9,53.4 81.6,57.4 83.9,61.3 88.4,61.3 90.6,57.4 		"/>
		<polygon class="st2" points="99.6,98.9 95.1,98.9 92.9,102.8 95.1,106.7 99.6,106.7 101.9,102.8 		"/>
		<polygon class="st2" points="99.6,85.9 95.1,85.9 92.9,89.8 95.1,93.7 99.6,93.7 101.9,89.8 		"/>
		<polygon class="st2" points="99.6,72.9 95.1,72.9 92.9,76.8 95.1,80.7 99.6,80.7 101.9,76.8 		"/>
		<polygon class="st2" points="99.6,59.9 95.1,59.9 92.9,63.8 95.1,67.8 99.6,67.8 101.9,63.8 		"/>
		<polygon class="st2" points="110.9,79.4 106.4,79.4 104.1,83.3 106.4,87.2 110.9,87.2 113.1,83.3 		"/>
		<polygon class="st2" points="110.9,66.4 106.4,66.4 104.1,70.3 106.4,74.2 110.9,74.2 113.1,70.3 		"/>
		<polygon class="st2" points="77.1,98.9 72.6,98.9 70.4,102.8 72.6,106.7 77.1,106.7 79.4,102.8 		"/>
		<polygon class="st2" points="77.1,85.9 72.6,85.9 70.4,89.8 72.6,93.7 77.1,93.7 79.4,89.8 		"/>
		<polygon class="st2" points="77.1,72.9 72.6,72.9 70.4,76.8 72.6,80.7 77.1,80.7 79.4,76.8 		"/>
		<polygon class="st2" points="77.1,59.9 72.6,59.9 70.4,63.8 72.6,67.8 77.1,67.8 79.4,63.8 		"/>
		<polygon class="st2" points="65.9,92.4 61.4,92.4 59.1,96.3 61.4,100.2 65.9,100.2 68.1,96.3 		"/>
		<polygon class="st1" points="133.4,92.4 128.9,92.4 126.6,96.3 128.9,100.2 133.4,100.2 135.6,96.3 		"/>
		<polygon class="st2" points="65.9,79.4 61.4,79.4 59.1,83.3 61.4,87.2 65.9,87.2 68.1,83.3 		"/>
		<polygon class="st2" points="65.9,66.4 61.4,66.4 59.1,70.3 61.4,74.2 65.9,74.2 68.1,70.3 		"/>
		<polygon class="st2" points="54.2,73.7 50.6,73.7 48.7,76.8 50.6,80 54.2,80 56,76.8 		"/>
		<polygon class="st2" points="54.2,60.7 50.6,60.7 48.7,63.8 50.6,67 54.2,67 56,63.8 		"/>
		<polygon class="st2" points="54.2,86.7 50.6,86.7 48.7,89.8 50.6,93 54.2,93 56,89.8 		"/>
		<polygon class="st2" points="54.2,99.7 50.6,99.7 48.7,102.8 50.6,106 54.2,106 56,102.8 		"/>
		<polygon class="st2" points="121.7,60.7 118,60.7 116.2,63.8 118,67 121.7,67 123.5,63.8 		"/>
		<polygon class="st2" points="121.7,86.7 118,86.7 116.2,89.8 118,93 121.7,93 123.5,89.8 		"/>
		<polygon class="st2" points="65.4,106.2 61.8,106.2 60,109.3 61.8,112.5 65.4,112.5 67.2,109.3 		"/>
		<polygon class="st2" points="76.7,112.7 73.1,112.7 71.2,115.8 73.1,118.9 76.7,118.9 78.5,115.8 		"/>
		<polygon class="st2" points="87.9,119.1 84.3,119.1 82.5,122.3 84.3,125.4 87.9,125.4 89.7,122.3 		"/>
		<polygon class="st2" points="87.9,41.2 84.3,41.2 82.5,44.4 84.3,47.5 87.9,47.5 89.7,44.4 		"/>
		<polygon class="st2" points="99.2,112.7 95.6,112.7 93.7,115.8 95.6,118.9 99.2,118.9 101,115.8 		"/>
		<polygon class="st2" points="76.7,47.7 73.1,47.7 71.2,50.9 73.1,54 76.7,54 78.5,50.9 		"/>
		<polygon class="st2" points="99.2,47.7 95.6,47.7 93.7,50.9 95.6,54 99.2,54 101,50.9 		"/>
		<polygon class="st2" points="110.4,106.2 106.8,106.2 105,109.3 106.8,112.5 110.4,112.5 112.2,109.3 		"/>
		<polygon class="st2" points="65.4,54.2 61.8,54.2 60,57.3 61.8,60.5 65.4,60.5 67.2,57.3 		"/>
		<polygon class="st2" points="110.4,54.2 106.8,54.2 105,57.4 106.8,60.5 110.4,60.5 112.2,57.4 		"/>
		<polygon class="st2" points="42.7,67.6 39.5,67.6 38,70.3 39.5,73.1 42.7,73.1 44.3,70.3 		"/>
		<polygon class="st2" points="42.7,80.6 39.5,80.6 38,83.3 39.5,86.1 42.7,86.1 44.3,83.3 		"/>
		<polygon class="st2" points="42.7,93.6 39.5,93.6 38,96.3 39.5,99.1 42.7,99.1 44.3,96.3 		"/>
		<polygon class="st2" points="132.7,67.6 129.5,67.6 128,70.3 129.5,73.1 132.7,73.1 134.3,70.3 		"/>
		<polygon class="st2" points="121.4,53.6 123,50.9 121.4,48.1 118.3,48.1 116.7,50.9 118.3,53.6 		"/>
		<polygon class="st2" points="110.2,47.1 111.8,44.4 110.2,41.6 107,41.6 105.5,44.4 107,47.1 		"/>
		<polygon class="st2" points="98.9,40.6 100.5,37.9 98.9,35.1 95.8,35.1 94.2,37.9 95.8,40.6 		"/>
		<polygon class="st2" points="76.4,131.5 78,128.8 76.4,126.1 73.3,126.1 71.7,128.8 73.3,131.5 		"/>
		<polygon class="st2" points="65.2,125 66.8,122.3 65.2,119.6 62,119.6 60.5,122.3 62,125 		"/>
		<polygon class="st2" points="54,118.5 55.5,115.8 54,113.1 50.8,113.1 49.2,115.8 50.8,118.5 		"/>
		<polygon class="st2" points="94.2,128.7 95.8,131.5 98.9,131.5 100.5,128.7 98.9,126 95.8,126 		"/>
		<polygon class="st2" points="116.7,115.8 118.3,118.5 121.4,118.5 123,115.8 121.4,113 118.3,113 		"/>
		<polygon class="st2" points="49.2,50.9 50.8,53.6 54,53.6 55.5,50.9 54,48.1 50.8,48.1 		"/>
		<polygon class="st2" points="60.5,44.4 62,47.1 65.2,47.1 66.8,44.4 65.2,41.6 62,41.6 		"/>
		<polygon class="st2" points="71.7,37.9 73.3,40.6 76.4,40.6 78,37.9 76.4,35.1 73.3,35.1 		"/>
		<polygon class="st1" points="151.3,87.3 155.9,87.3 158.1,83.3 155.9,79.4 151.3,79.4 149.1,83.3 		"/>
		<polygon class="st1" points="151.3,100.2 155.9,100.2 158.1,96.3 155.9,92.4 151.3,92.4 149.1,96.3 		"/>
		<polygon class="st1" points="151.3,113.2 155.9,113.2 158.1,109.3 155.9,105.4 151.3,105.4 149.1,109.3 		"/>
		<polygon class="st1" points="151.3,126.2 155.9,126.2 158.1,122.3 155.9,118.4 151.3,118.4 149.1,122.3 		"/>
		<polygon class="st1" points="151.3,139.2 155.9,139.2 158.1,135.3 155.9,131.4 151.3,131.4 149.1,135.3 		"/>
		<polygon class="st1" points="140.1,106.7 144.6,106.7 146.9,102.8 144.6,98.9 140.1,98.9 137.8,102.8 		"/>
		<polygon class="st1" points="140.1,119.7 144.6,119.7 146.9,115.8 144.6,111.9 140.1,111.9 137.8,115.8 		"/>
		<polygon class="st1" points="140.1,132.7 144.6,132.7 146.9,128.8 144.6,124.9 140.1,124.9 137.8,128.8 		"/>
		<polygon class="st1" points="128.9,113.2 133.4,113.2 135.6,109.3 133.4,105.4 128.9,105.4 126.6,109.3 		"/>
		<polygon class="st1" points="128.9,126.2 133.4,126.2 135.6,122.3 133.4,118.4 128.9,118.4 126.6,122.3 		"/>
		<polygon class="st1" points="162.6,93.7 167.1,93.7 169.4,89.8 167.1,85.9 162.6,85.9 160.3,89.8 		"/>
		<polygon class="st1" points="162.6,106.7 167.1,106.7 169.4,102.8 167.1,98.9 162.6,98.9 160.3,102.8 		"/>
		<polygon class="st1" points="162.6,119.7 167.1,119.7 169.4,115.8 167.1,111.9 162.6,111.9 160.3,115.8 		"/>
		<polygon class="st1" points="162.6,132.7 167.1,132.7 169.4,128.8 167.1,124.9 162.6,124.9 160.3,128.8 		"/>
		<polygon class="st1" points="173.8,100.2 178.4,100.2 180.6,96.3 178.4,92.4 173.8,92.4 171.6,96.3 		"/>
		<polygon class="st1" points="173.8,113.2 178.4,113.2 180.6,109.3 178.4,105.4 173.8,105.4 171.6,109.3 		"/>
		<polygon class="st1" points="173.8,126.2 178.4,126.2 180.6,122.3 178.4,118.4 173.8,118.4 171.6,122.3 		"/>
		<polygon class="st1" points="185.5,119 189.2,119 191,115.8 189.2,112.7 185.5,112.7 183.7,115.8 		"/>
		<polygon class="st1" points="185.5,131.9 189.2,131.9 191,128.8 189.2,125.7 185.5,125.7 183.7,128.8 		"/>
		<polygon class="st1" points="185.5,106 189.2,106 191,102.8 189.2,99.7 185.5,99.7 183.7,102.8 		"/>
		<polygon class="st1" points="185.5,93 189.2,93 191,89.8 189.2,86.7 185.5,86.7 183.7,89.8 		"/>
		<polygon class="st1" points="118,131.9 121.7,131.9 123.5,128.8 121.7,125.7 118,125.7 116.2,128.8 		"/>
		<polygon class="st2" points="118,93 121.7,93 123.5,89.8 121.7,86.7 118,86.7 116.2,89.8 		"/>
		<polygon class="st1" points="174.3,86.5 177.9,86.5 179.7,83.3 177.9,80.2 174.3,80.2 172.5,83.3 		"/>
		<polygon class="st1" points="163,80 166.7,80 168.5,76.9 166.7,73.7 163,73.7 161.2,76.9 		"/>
		<polygon class="st1" points="151.8,73.5 155.4,73.5 157.2,70.4 155.4,67.2 151.8,67.2 150,70.4 		"/>
		<polygon class="st1" points="151.8,151.4 155.4,151.4 157.2,148.3 155.4,145.1 151.8,145.1 150,148.3 		"/>
		<polygon class="st1" points="140.5,80 144.2,80 146,76.8 144.2,73.7 140.5,73.7 138.7,76.8 		"/>
		<polygon class="st1" points="163,144.9 166.7,144.9 168.5,141.8 166.7,138.7 163,138.7 161.2,141.8 		"/>
		<polygon class="st1" points="140.5,144.9 144.2,144.9 146,141.8 144.2,138.6 140.5,138.6 138.7,141.8 		"/>
		<polygon class="st1" points="174.3,138.5 177.9,138.5 179.7,135.3 177.9,132.2 174.3,132.2 172.5,135.3 		"/>
		<polygon class="st1" points="129.3,138.4 132.9,138.4 134.7,135.3 132.9,132.2 129.3,132.2 127.5,135.3 		"/>
		<polygon class="st1" points="197,125 200.2,125 201.8,122.3 200.2,119.6 197,119.6 195.4,122.3 		"/>
		<polygon class="st1" points="197,112.1 200.2,112.1 201.8,109.3 200.2,106.6 197,106.6 195.4,109.3 		"/>
		<polygon class="st1" points="197,99.1 200.2,99.1 201.8,96.3 200.2,93.6 197,93.6 195.4,96.3 		"/>
		<polygon class="st1" points="107,125 110.2,125 111.8,122.3 110.2,119.6 107,119.6 105.5,122.3 		"/>
		<polygon class="st1" points="107,99.1 110.2,99.1 111.8,96.3 110.2,93.6 107,93.6 105.5,96.3 		"/>
		<polygon class="st1" points="84.5,99.1 87.7,99.1 89.3,96.3 87.7,93.6 84.5,93.6 83,96.3 		"/>
		<polygon class="st1" points="118.3,139.1 116.7,141.8 118.3,144.5 121.4,144.5 123,141.8 121.4,139.1 		"/>
		<polygon class="st1" points="129.5,145.6 127.9,148.3 129.5,151 132.7,151 134.3,148.3 132.7,145.6 		"/>
		<polygon class="st1" points="140.8,152 139.2,154.8 140.8,157.5 143.9,157.5 145.5,154.8 143.9,152 		"/>
		<polygon class="st1" points="163.3,61.1 161.7,63.9 163.3,66.6 166.4,66.6 168,63.9 166.4,61.1 		"/>
		<polygon class="st1" points="174.5,67.6 172.9,70.4 174.5,73.1 177.7,73.1 179.3,70.4 177.7,67.6 		"/>
		<polygon class="st1" points="185.8,74.1 184.2,76.9 185.8,79.6 188.9,79.6 190.5,76.9 188.9,74.1 		"/>
		<polygon class="st1" points="145.5,63.9 143.9,61.2 140.8,61.2 139.2,63.9 140.8,66.6 143.9,66.6 		"/>
		<polygon class="st1" points="123,76.9 121.4,74.2 118.3,74.2 116.7,76.9 118.3,79.6 121.4,79.6 		"/>
		<polygon class="st1" points="190.5,141.8 188.9,139.1 185.8,139.1 184.2,141.8 185.8,144.5 188.9,144.5 		"/>
		<polygon class="st1" points="179.3,148.3 177.7,145.6 174.5,145.6 172.9,148.3 174.5,151 177.7,151 		"/>
		<polygon class="st1" points="168,154.8 166.4,152 163.3,152 161.7,154.8 163.3,157.5 166.4,157.5 		"/>
		<polygon class="st2" points="143.9,87.1 140.8,87.1 139.2,89.8 140.8,92.6 143.9,92.6 145.5,89.8 		"/>
	</g>
	<g>
		<g>
			<g>
				<path class="st3" d="M259.9,124.9V109c0-0.3-0.2-0.4-0.4-0.1c-2.3,3.6-7.2,5.8-11.7,5.8c-9.3,0-16.8-8-16.8-17.9
					c0-9.8,7.5-17.8,16.8-17.8c4.5,0,9.4,2.2,11.7,5.8c0.2,0.3,0.4,0.2,0.4-0.1v-2.6c0-1.4,0.9-2.4,2.3-2.4c1.4,0,2.4,1,2.4,2.4
					v42.9c0,1.4-1,2.4-2.3,2.4C260.9,127.3,259.9,126.3,259.9,124.9z M235.7,96.8c0,7.4,5.5,13.2,12.1,13.2
					c6.6,0,12.1-5.8,12.1-13.2c0-7.3-5.5-13.1-12.1-13.1C241.3,83.7,235.7,89.5,235.7,96.8z"/>
			</g>
			<g>
				<path class="st3" d="M305.6,82.1v18.7c0,7.7-6.2,13.9-13.9,13.9s-13.9-6.2-13.9-13.9V82.1c0-1.4,1-2.4,2.4-2.4
					c1.3,0,2.3,1,2.3,2.4v18.7c0,5.1,4.1,9.2,9.2,9.2c5.1,0,9.2-4.1,9.2-9.2V82.1c0-1.4,1-2.4,2.3-2.4
					C304.6,79.7,305.6,80.7,305.6,82.1z"/>
			</g>
			<g>
				<path class="st3" d="M349.8,82.1v29.5c0,1.4-1,2.4-2.4,2.4c-1.3,0-2.3-1-2.3-2.4V109c0-0.3-0.2-0.4-0.4-0.1
					c-2.3,3.6-7.2,5.8-11.7,5.8c-9.3,0-16.8-8-16.8-17.8c0-9.9,7.5-17.9,16.8-17.9c4.5,0,9.4,2.2,11.7,5.8c0.2,0.3,0.4,0.2,0.4-0.1
					v-2.6c0-1.4,1-2.4,2.3-2.4C348.8,79.7,349.8,80.7,349.8,82.1z M345.2,96.9c0-7.4-5.5-13.2-12.1-13.2c-6.6,0-12.1,5.8-12.1,13.2
					c0,7.3,5.5,13.1,12.1,13.1C339.7,110,345.2,104.2,345.2,96.9z"/>
				<path class="st3" d="M368.5,84.1c0,0.3,0.2,0.4,0.3,0.1c1.3-1.9,5.3-5.2,10.2-5.2c7.7,0,12.5,6.2,12.5,13.9v18.7
					c0,1.4-1,2.4-2.4,2.4c-1.3,0-2.3-1-2.3-2.4V92.9c0-5.1-3.5-9.2-8.5-9.2c-5.1,0-9.9,4.1-9.9,9.2v18.7c0,1.4-1,2.4-2.4,2.4
					c-1.3,0-2.3-1-2.3-2.4V82.1c0-1.4,1-2.4,2.4-2.4c1.3,0,2.3,1,2.3,2.4V84.1z"/>
			</g>
			<g>
				<path class="st3" d="M412,84.3c-0.2,0-0.3,0.1-0.3,0.3V105c0,2.2,0.4,4.3,2.7,4c1.7-0.2,2.8,0.7,2.9,2.3
					c0.1,1.9-1.7,2.7-3.9,2.7c-3.3,0-6.3-1.5-6.3-6.8V84.7c0-0.2-0.1-0.3-0.3-0.3h-4.1c-1.4,0-2.4-1-2.4-2.3c0-1.3,1-2.3,2.4-2.3
					h4.1c0.2,0,0.3-0.1,0.3-0.3V73c0-1.5,1.1-2.3,2.3-2.3c1.3,0,2.3,0.9,2.3,2.3v6.3c0,0.2,0.1,0.3,0.3,0.3h3.9c1.4,0,2.4,1,2.4,2.3
					c0,1.3-1,2.3-2.4,2.3H412z"/>
			</g>
			<g>
				<path class="st3" d="M435,111.6c0,1.4-1,2.4-2.3,2.4c-1.3,0-2.3-1-2.3-2.4V82.1c0-1.4,1-2.4,2.3-2.4c1.3,0,2.3,1,2.3,2.4V111.6z
					"/>
			</g>
			<g>
				<path class="st3" d="M452.3,74.9c0-7.5,6.3-10.3,10.2-10.3c1.7,0,3.1,0.9,3.1,2.6v0.1c0,2.1-2,1.8-3.7,1.9
					c-3.1,0.3-4.9,2.8-4.9,7v2.9c0,0.3,0.1,0.5,0.5,0.5h5.5c1.7,0,2.3,1.3,2.3,2.3c0,1.1-0.6,2.3-2.3,2.3h-5.5
					c-0.3,0-0.5,0.1-0.5,0.5v26.9c0,1.1-0.6,2.3-2.3,2.3c-1.7,0-2.3-1.3-2.3-2.3V84.8c0-0.3-0.1-0.5-0.5-0.5h-2.7
					c-1.7,0-2.3-1.3-2.3-2.3c0-1.1,0.6-2.3,2.3-2.3h2.7c0.3,0,0.5-0.1,0.5-0.5V74.9z"/>
				<path class="st3" d="M498,82.1c0-1.4,1-2.4,2.3-2.4c1.3,0,2.3,1,2.3,2.4v31.7c0,9.6-8.5,14.3-14.9,14.3c-4.1,0-8.1-1.6-10.4-3.7
					c-0.7-0.6-1.1-2-0.4-3c0.7-0.9,2-1.4,3.1-0.5c1.8,1.3,4,2.5,7.7,2.5c3.9,0,10.3-2.4,10.3-9.6v-2c0-0.3-0.2-0.4-0.4-0.2
					c-2.4,1.9-5.5,3.1-8.8,3.1c-7.7,0-13.9-6.2-13.9-13.9V82.1c0-1.4,1-2.4,2.4-2.4c1.3,0,2.3,1,2.3,2.4v18.7c0,5.1,4.1,9.2,9.2,9.2
					c5.1,0,9.2-4.1,9.2-9.2V82.1z"/>
			</g>
		</g>
	</g>
</g>
<rect x="766.8" y="-199.8" transform="matrix(-1.836970e-16 1 -1 -1.836970e-16 959.5276 -766.7717)" class="st0" width="192.8" height="592.4"/>
<rect x="566.9" y="25.4" class="st2" width="566.9" height="141.9"/>
<g>
	<g>
		<path class="st4" d="M630.5,89.5c-0.1-2.4-2.9-3.9-5.5-3.9c-6.8,0-8.2,6-8.2,11.5c0,5.4,1.3,12,7.9,12c3,0,5.8-2.2,5.8-5.2h7
			c0,7.2-7,11-13.3,11c-10.1,0-14.4-8.6-14.4-17.8c0-9.1,5.1-17.5,15-17.5c6.3,0,11.7,3.1,12.7,9.8H630.5z"/>
		<path class="st4" d="M688.5,97.2c0,10.1-6,17.8-16.5,17.8c-10.5,0-16.5-7.7-16.5-17.8c0-10.3,6.2-17.5,16.5-17.5
			C682.2,79.7,688.5,86.9,688.5,97.2z M662.5,97.3c0,6.3,2.2,12.5,9.5,12.5s9.5-6.2,9.5-12.5C681.5,91,679,85,672,85
			C665,85,662.5,91,662.5,97.3z"/>
		<path class="st4" d="M716.5,84.1h0.1c2.1-2.8,5.2-4.3,8.8-4.3c6,0,10.3,4.3,10.3,10.3v1.4h-7v-1c0-2.6-1.3-5.4-4.3-5.4
			c-6.7,0-8,6.7-8,11.8v17.6h-7v-34h7V84.1z"/>
		<path class="st4" d="M761.5,98.8c-0.3,6.2,3.7,10.4,9.9,10.4c2,0,4.6-0.2,5.4-2.4h6.9c-0.3,6.5-7.3,8.2-12.6,8.2
			c-10.8,0-16.6-6.8-16.6-17.4c0-10.1,5-17.9,15.7-17.9c10.7,0,14.8,7,14.8,16.9v2.1H761.5z M778,92.9c-0.1-4.6-3.5-7.3-7.9-7.3
			c-4.3,0-8.3,2.8-8.6,7.3H778z"/>
		<path class="st4" d="M794.2,119.1h48.9v7h-48.9V119.1z"/>
	</g>
</g>
</svg>
