<?xml version="1.0" encoding="utf-8"?>
<!-- Generator: Adobe Illustrator 26.0.0, SVG Export Plug-In . SVG Version: 6.00 Build 0)  -->
<svg version="1.1" id="Layer_1" xmlns="http://www.w3.org/2000/svg" xmlns:xlink="http://www.w3.org/1999/xlink" x="0px" y="0px"
	 viewBox="0 0 595.28 595.28" style="enable-background:new 0 0 595.28 595.28;" xml:space="preserve">
<style type="text/css">
	.st0{fill:#00AEEF;}
	.st1{fill:#ED2024;}
	.st2{fill:#FFFFFF;}
	.st3{fill:none;}
</style>
<g>
	<g>
		<polygon class="st0" points="323.04,213.4 332.81,213.4 337.69,204.94 332.81,196.48 323.04,196.48 318.16,204.94 		"/>
		<polygon class="st0" points="292.75,265.91 302.52,265.91 307.41,257.45 302.52,248.99 292.75,248.99 287.87,257.45 		"/>
		<polygon class="st1" points="212.84,264.38 200.69,264.38 194.61,274.9 200.69,285.42 212.84,285.42 218.91,274.9 		"/>
		<polygon class="st1" points="212.84,194.42 200.69,194.42 194.61,204.94 200.69,215.46 212.84,215.46 218.91,204.94 		"/>
		<polygon class="st1" points="212.84,159.44 200.69,159.44 194.61,169.96 200.69,180.48 212.84,180.48 218.91,169.96 		"/>
		<polygon class="st1" points="212.84,124.46 200.69,124.46 194.61,134.98 200.69,145.5 212.84,145.5 218.91,134.98 		"/>
		<polygon class="st1" points="243.13,246.89 230.98,246.89 224.91,257.41 230.98,267.93 243.13,267.93 249.2,257.41 		"/>
		<polygon class="st1" points="243.13,211.91 230.98,211.91 224.91,222.43 230.98,232.95 243.13,232.95 249.2,222.43 		"/>
		<polygon class="st1" points="243.13,176.93 230.98,176.93 224.91,187.45 230.98,197.97 243.13,197.97 249.2,187.45 		"/>
		<polygon class="st1" points="243.13,141.95 230.98,141.95 224.91,152.47 230.98,162.99 243.13,162.99 249.2,152.47 		"/>
		<polygon class="st1" points="273.42,194.42 261.28,194.42 255.2,204.94 261.28,215.46 273.42,215.46 279.5,204.94 		"/>
		<polygon class="st1" points="273.42,159.44 261.28,159.44 255.2,169.96 261.28,180.48 273.42,180.48 279.5,169.96 		"/>
		<polygon class="st1" points="182.54,246.89 170.39,246.89 164.32,257.41 170.39,267.93 182.54,267.93 188.61,257.41 		"/>
		<polygon class="st1" points="182.54,211.91 170.39,211.91 164.32,222.43 170.39,232.95 182.54,232.95 188.61,222.43 		"/>
		<polygon class="st1" points="182.54,176.93 170.39,176.93 164.32,187.45 170.39,197.97 182.54,197.97 188.61,187.45 		"/>
		<polygon class="st1" points="182.54,141.95 170.39,141.95 164.32,152.47 170.39,162.99 182.54,162.99 188.61,152.47 		"/>
		<polygon class="st1" points="152.25,229.4 140.1,229.4 134.03,239.92 140.1,250.44 152.25,250.44 158.32,239.92 		"/>
		<polygon class="st0" points="334,229.4 321.85,229.4 315.78,239.92 321.85,250.44 334,250.44 340.07,239.92 		"/>
		<polygon class="st1" points="152.25,194.42 140.1,194.42 134.03,204.94 140.1,215.46 152.25,215.46 158.32,204.94 		"/>
		<polygon class="st1" points="152.25,159.44 140.1,159.44 134.03,169.96 140.1,180.48 152.25,180.48 158.32,169.96 		"/>
		<polygon class="st1" points="120.76,178.99 110.99,178.99 106.11,187.45 110.99,195.9 120.76,195.9 125.65,187.45 		"/>
		<polygon class="st1" points="120.76,144.01 110.99,144.01 106.11,152.47 110.99,160.92 120.76,160.92 125.65,152.47 		"/>
		<polygon class="st1" points="120.76,213.99 110.99,213.99 106.11,222.45 110.99,230.91 120.76,230.91 125.65,222.45 		"/>
		<polygon class="st1" points="120.76,248.99 110.99,248.99 106.11,257.45 110.99,265.91 120.76,265.91 125.65,257.45 		"/>
		<polygon class="st1" points="302.52,144.01 292.75,144.01 287.87,152.47 292.75,160.92 302.52,160.92 307.41,152.47 		"/>
		<polygon class="st1" points="302.52,213.99 292.75,213.99 287.87,222.45 292.75,230.91 302.52,230.91 307.41,222.45 		"/>
		<polygon class="st1" points="151.06,266.45 141.29,266.45 136.4,274.91 141.29,283.37 151.06,283.37 155.94,274.91 		"/>
		<polygon class="st1" points="181.35,283.92 171.58,283.92 166.7,292.38 171.58,300.84 181.35,300.84 186.24,292.38 		"/>
		<polygon class="st1" points="211.65,301.39 201.88,301.39 196.99,309.85 201.88,318.31 211.65,318.31 216.53,309.85 		"/>
		<polygon class="st1" points="211.65,91.54 201.88,91.54 196.99,100 201.88,108.46 211.65,108.46 216.53,100 		"/>
		<polygon class="st1" points="241.94,283.94 232.17,283.94 227.29,292.4 232.17,300.86 241.94,300.86 246.82,292.4 		"/>
		<polygon class="st1" points="181.35,109.04 171.58,109.04 166.7,117.5 171.58,125.96 181.35,125.96 186.24,117.5 		"/>
		<polygon class="st1" points="241.94,109.06 232.17,109.06 227.29,117.52 232.17,125.98 241.94,125.98 246.82,117.52 		"/>
		<polygon class="st1" points="272.23,266.5 262.47,266.5 257.58,274.96 262.47,283.42 272.23,283.42 277.12,274.96 		"/>
		<polygon class="st1" points="151.06,126.5 141.29,126.5 136.4,134.96 141.29,143.42 151.06,143.42 155.94,134.96 		"/>
		<polygon class="st1" points="272.23,126.54 262.47,126.54 257.58,135 262.47,143.46 272.23,143.46 277.12,135 		"/>
		<polygon class="st1" points="89.84,162.59 81.33,162.59 77.08,169.96 81.33,177.32 89.84,177.32 94.09,169.96 		"/>
		<polygon class="st1" points="89.84,197.57 81.33,197.57 77.08,204.94 81.33,212.3 89.84,212.3 94.09,204.94 		"/>
		<polygon class="st1" points="89.84,232.55 81.33,232.55 77.08,239.92 81.33,247.28 89.84,247.28 94.09,239.92 		"/>
		<polygon class="st1" points="332.19,162.59 323.68,162.59 319.43,169.96 323.68,177.32 332.19,177.32 336.45,169.96 		"/>
		<polygon class="st1" points="301.9,124.85 306.15,117.48 301.9,110.12 293.39,110.12 289.14,117.48 293.39,124.85 		"/>
		<polygon class="st1" points="271.6,107.36 275.86,99.99 271.6,92.63 263.1,92.63 258.84,99.99 263.1,107.36 		"/>
		<polygon class="st1" points="241.31,89.87 245.56,82.5 241.31,75.14 232.8,75.14 228.55,82.5 232.8,89.87 		"/>
		<polygon class="st1" points="180.72,334.74 184.97,327.37 180.72,320 172.21,320 167.96,327.37 172.21,334.74 		"/>
		<polygon class="st1" points="150.43,317.25 154.68,309.88 150.43,302.51 141.92,302.51 137.67,309.88 141.92,317.25 		"/>
		<polygon class="st1" points="120.13,299.76 124.39,292.39 120.13,285.02 111.63,285.02 107.37,292.39 111.63,299.76 		"/>
		<polygon class="st1" points="228.55,327.24 232.8,334.61 241.31,334.61 245.56,327.24 241.31,319.87 232.8,319.87 		"/>
		<polygon class="st1" points="289.14,292.26 293.39,299.63 301.9,299.63 306.15,292.26 301.9,284.89 293.39,284.89 		"/>
		<polygon class="st1" points="107.37,117.48 111.63,124.85 120.13,124.85 124.39,117.48 120.13,110.12 111.63,110.12 		"/>
		<polygon class="st1" points="137.67,99.99 141.92,107.36 150.43,107.36 154.68,99.99 150.43,92.63 141.92,92.63 		"/>
		<polygon class="st1" points="167.96,82.5 172.21,89.87 180.72,89.87 184.97,82.5 180.72,75.14 172.21,75.14 		"/>
		<polygon class="st0" points="382.44,215.51 394.59,215.51 400.66,204.99 394.59,194.47 382.44,194.47 376.37,204.99 		"/>
		<polygon class="st0" points="382.44,250.5 394.59,250.5 400.66,239.98 394.59,229.45 382.44,229.45 376.37,239.98 		"/>
		<polygon class="st0" points="382.44,285.47 394.59,285.47 400.66,274.95 394.59,264.43 382.44,264.43 376.37,274.95 		"/>
		<polygon class="st0" points="382.44,320.45 394.59,320.45 400.66,309.93 394.59,299.41 382.44,299.41 376.37,309.93 		"/>
		<polygon class="st0" points="382.44,355.43 394.59,355.43 400.66,344.91 394.59,334.39 382.44,334.39 376.37,344.91 		"/>
		<polygon class="st0" points="352.15,267.98 364.29,267.98 370.37,257.46 364.29,246.94 352.15,246.94 346.07,257.46 		"/>
		<polygon class="st0" points="352.15,302.96 364.29,302.96 370.37,292.44 364.29,281.92 352.15,281.92 346.07,292.44 		"/>
		<polygon class="st0" points="352.15,337.94 364.29,337.94 370.37,327.42 364.29,316.9 352.15,316.9 346.07,327.42 		"/>
		<polygon class="st0" points="321.85,285.47 334,285.47 340.07,274.95 334,264.43 321.85,264.43 315.78,274.95 		"/>
		<polygon class="st0" points="321.85,320.45 334,320.45 340.07,309.93 334,299.41 321.85,299.41 315.78,309.93 		"/>
		<polygon class="st0" points="412.73,233 424.88,233 430.96,222.48 424.88,211.96 412.73,211.96 406.66,222.48 		"/>
		<polygon class="st0" points="412.73,267.98 424.88,267.98 430.96,257.46 424.88,246.94 412.73,246.94 406.66,257.46 		"/>
		<polygon class="st0" points="412.73,302.96 424.88,302.96 430.96,292.44 424.88,281.92 412.73,281.92 406.66,292.44 		"/>
		<polygon class="st0" points="412.73,337.94 424.88,337.94 430.96,327.42 424.88,316.9 412.73,316.9 406.66,327.42 		"/>
		<polygon class="st0" points="443.03,250.49 455.18,250.49 461.25,239.97 455.18,229.45 443.03,229.45 436.95,239.97 		"/>
		<polygon class="st0" points="443.03,285.47 455.18,285.47 461.25,274.95 455.18,264.43 443.03,264.43 436.95,274.95 		"/>
		<polygon class="st0" points="443.03,320.45 455.18,320.45 461.25,309.93 455.18,299.41 443.03,299.41 436.95,309.93 		"/>
		<polygon class="st0" points="474.51,300.91 484.28,300.91 489.16,292.45 484.28,283.99 474.51,283.99 469.63,292.45 		"/>
		<polygon class="st0" points="474.51,335.89 484.28,335.89 489.16,327.43 484.28,318.97 474.51,318.97 469.63,327.43 		"/>
		<polygon class="st0" points="474.51,265.91 484.28,265.91 489.16,257.45 484.28,248.99 474.51,248.99 469.63,257.45 		"/>
		<polygon class="st0" points="474.51,230.9 484.28,230.9 489.16,222.45 484.28,213.99 474.51,213.99 469.63,222.45 		"/>
		<polygon class="st0" points="292.75,335.89 302.52,335.89 307.41,327.43 302.52,318.97 292.75,318.97 287.87,327.43 		"/>
		<polygon class="st1" points="292.75,230.9 302.52,230.9 307.41,222.45 302.52,213.99 292.75,213.99 287.87,222.45 		"/>
		<polygon class="st0" points="444.22,213.44 453.99,213.44 458.87,204.98 453.99,196.52 444.22,196.52 439.33,204.98 		"/>
		<polygon class="st0" points="413.92,195.97 423.69,195.97 428.58,187.51 423.69,179.05 413.92,179.05 409.04,187.51 		"/>
		<polygon class="st0" points="383.63,178.5 393.4,178.5 398.28,170.04 393.4,161.58 383.63,161.58 378.75,170.04 		"/>
		<polygon class="st0" points="383.63,388.35 393.4,388.35 398.28,379.89 393.4,371.44 383.63,371.44 378.75,379.89 		"/>
		<polygon class="st0" points="353.34,195.95 363.1,195.95 367.99,187.49 363.1,179.03 353.34,179.03 348.45,187.49 		"/>
		<polygon class="st0" points="413.92,370.86 423.69,370.86 428.58,362.4 423.69,353.94 413.92,353.94 409.04,362.4 		"/>
		<polygon class="st0" points="353.34,370.83 363.1,370.83 367.99,362.38 363.1,353.92 353.34,353.92 348.45,362.38 		"/>
		<polygon class="st0" points="444.22,353.4 453.99,353.4 458.87,344.94 453.99,336.48 444.22,336.48 439.33,344.94 		"/>
		<polygon class="st0" points="323.04,353.35 332.81,353.35 337.69,344.89 332.81,336.43 323.04,336.43 318.16,344.89 		"/>
		<polygon class="st0" points="505.44,317.3 513.94,317.3 518.2,309.93 513.94,302.57 505.44,302.57 501.18,309.93 		"/>
		<polygon class="st0" points="505.44,282.32 513.94,282.32 518.2,274.95 513.94,267.59 505.44,267.59 501.18,274.95 		"/>
		<polygon class="st0" points="505.44,247.34 513.94,247.34 518.2,239.98 513.94,232.61 505.44,232.61 501.18,239.98 		"/>
		<polygon class="st0" points="263.08,317.3 271.59,317.3 275.85,309.93 271.59,302.57 263.08,302.57 258.83,309.93 		"/>
		<polygon class="st0" points="263.08,247.34 271.59,247.34 275.85,239.98 271.59,232.61 263.08,232.61 258.83,239.98 		"/>
		<polygon class="st0" points="202.51,247.34 211.02,247.34 215.27,239.98 211.02,232.61 202.51,232.61 198.25,239.98 		"/>
		<polygon class="st0" points="293.38,355.04 289.12,362.41 293.38,369.77 301.89,369.77 306.14,362.41 301.89,355.04 		"/>
		<polygon class="st0" points="323.67,372.53 319.42,379.9 323.67,387.26 332.18,387.26 336.43,379.9 332.18,372.53 		"/>
		<polygon class="st0" points="353.97,390.02 349.71,397.39 353.97,404.75 362.47,404.75 366.73,397.39 362.47,390.02 		"/>
		<polygon class="st0" points="414.55,145.16 410.3,152.52 414.55,159.89 423.06,159.89 427.32,152.52 423.06,145.16 		"/>
		<polygon class="st0" points="444.85,162.65 440.59,170.01 444.85,177.38 453.36,177.38 457.61,170.01 453.36,162.65 		"/>
		<polygon class="st0" points="475.14,180.14 470.89,187.5 475.14,194.87 483.65,194.87 487.9,187.5 483.65,180.14 		"/>
		<polygon class="st0" points="366.73,152.65 362.47,145.29 353.97,145.29 349.71,152.65 353.97,160.02 362.47,160.02 		"/>
		<polygon class="st0" points="306.14,187.63 301.89,180.27 293.38,180.27 289.12,187.63 293.38,195 301.89,195 		"/>
		<polygon class="st0" points="487.9,362.41 483.65,355.04 475.14,355.04 470.89,362.41 475.14,369.77 483.65,369.77 		"/>
		<polygon class="st0" points="457.61,379.9 453.36,372.53 444.85,372.53 440.59,379.9 444.85,387.26 453.36,387.26 		"/>
		<polygon class="st0" points="427.32,397.39 423.06,390.02 414.55,390.02 410.3,397.39 414.55,404.75 423.06,404.75 		"/>
		<polygon class="st1" points="362.47,215.05 353.97,215.05 349.71,222.42 353.97,229.79 362.47,229.79 366.73,222.42 		"/>
	</g>
	<g>
		<g>
			<path class="st2" d="M146.68,522.57v-22.28c0-0.47-0.28-0.56-0.56-0.19c-3.17,5.03-10.07,8.11-16.32,8.11
				c-12.96,0-23.5-11.19-23.5-24.99c0-13.7,10.54-24.89,23.5-24.89c6.24,0,13.15,3.08,16.32,8.11c0.28,0.37,0.56,0.28,0.56-0.19
				v-3.64c0-1.96,1.3-3.35,3.17-3.35c1.96,0,3.35,1.4,3.35,3.35v59.95c0,1.96-1.4,3.35-3.26,3.35
				C148.07,525.93,146.68,524.53,146.68,522.57z M112.83,483.22c0,10.35,7.74,18.46,16.97,18.46c9.23,0,16.88-8.11,16.88-18.46
				c0-10.26-7.65-18.37-16.88-18.37C120.57,464.85,112.83,472.97,112.83,483.22z"/>
		</g>
		<g>
			<path class="st2" d="M210.64,462.62v26.2c0,10.72-8.67,19.39-19.39,19.39c-10.72,0-19.39-8.67-19.39-19.39v-26.2
				c0-1.96,1.4-3.35,3.36-3.35c1.86,0,3.17,1.4,3.17,3.35v26.2c0,7.08,5.78,12.87,12.87,12.87c7.09,0,12.87-5.78,12.87-12.87v-26.2
				c0-1.96,1.4-3.35,3.26-3.35C209.24,459.26,210.64,460.66,210.64,462.62z"/>
		</g>
		<g>
			<path class="st2" d="M272.46,462.62v41.31c0,1.96-1.4,3.35-3.35,3.35c-1.86,0-3.17-1.4-3.17-3.35v-3.64
				c0-0.47-0.28-0.56-0.56-0.19c-3.17,5.03-10.07,8.11-16.32,8.11c-12.96,0-23.5-11.19-23.5-24.9c0-13.8,10.54-24.99,23.5-24.99
				c6.25,0,13.15,3.08,16.32,8.11c0.28,0.37,0.56,0.28,0.56-0.19v-3.64c0-1.96,1.4-3.35,3.26-3.35
				C271.06,459.26,272.46,460.66,272.46,462.62z M265.94,483.32c0-10.35-7.64-18.46-16.88-18.46s-16.97,8.11-16.97,18.46
				c0,10.26,7.74,18.37,16.97,18.37S265.94,493.57,265.94,483.32z"/>
			<path class="st2" d="M298.57,465.41c0,0.47,0.28,0.56,0.47,0.19c1.86-2.7,7.37-7.27,14.26-7.27c10.72,0,17.53,8.67,17.53,19.39
				v26.2c0,1.96-1.4,3.35-3.35,3.35c-1.87,0-3.17-1.4-3.17-3.35v-26.2c0-7.18-4.85-12.87-11.93-12.87c-7.18,0-13.8,5.69-13.8,12.87
				v26.2c0,1.96-1.4,3.35-3.35,3.35c-1.87,0-3.17-1.4-3.17-3.35v-41.31c0-1.96,1.4-3.35,3.35-3.35c1.87,0,3.17,1.4,3.17,3.35V465.41
				z"/>
		</g>
		<g>
			<path class="st2" d="M359.46,465.79c-0.28,0-0.47,0.19-0.47,0.46v28.44c0,3.08,0.56,5.97,3.73,5.6c2.43-0.28,3.92,0.93,4.01,3.17
				c0.09,2.61-2.43,3.82-5.5,3.82c-4.57,0-8.76-2.14-8.76-9.51v-31.52c0-0.28-0.19-0.46-0.46-0.46h-5.69c-1.96,0-3.35-1.4-3.35-3.26
				c0-1.86,1.4-3.26,3.35-3.26H352c0.28,0,0.46-0.19,0.46-0.47v-8.86c0-2.05,1.49-3.26,3.26-3.26c1.77,0,3.26,1.21,3.26,3.26v8.86
				c0,0.28,0.19,0.47,0.47,0.47h5.5c1.96,0,3.36,1.4,3.36,3.26c0,1.87-1.4,3.26-3.36,3.26H359.46z"/>
		</g>
		<g>
			<path class="st2" d="M391.53,503.92c0,1.96-1.4,3.35-3.26,3.35c-1.87,0-3.26-1.4-3.26-3.35v-41.31c0-1.96,1.4-3.35,3.26-3.35
				c1.86,0,3.26,1.4,3.26,3.35V503.92z"/>
		</g>
		<g>
			<path class="st2" d="M415.86,452.64c0-10.44,8.76-14.36,14.26-14.36c2.43,0,4.29,1.21,4.29,3.64v0.09c0,2.89-2.8,2.52-5.22,2.7
				c-4.29,0.37-6.81,3.92-6.81,9.79v4.1c0,0.47,0.19,0.66,0.65,0.66h7.74c2.42,0,3.26,1.77,3.26,3.26s-0.84,3.26-3.26,3.26h-7.74
				c-0.46,0-0.65,0.19-0.65,0.65v37.58c0,1.49-0.84,3.26-3.26,3.26s-3.26-1.77-3.26-3.26v-37.58c0-0.46-0.19-0.65-0.66-0.65h-3.73
				c-2.43,0-3.26-1.77-3.26-3.26s0.84-3.26,3.26-3.26h3.73c0.47,0,0.66-0.19,0.66-0.66V452.64z"/>
			<path class="st2" d="M479.73,462.62c0-1.96,1.4-3.35,3.26-3.35c1.86,0,3.26,1.4,3.26,3.35v44.29c0,13.43-11.93,19.95-20.89,19.95
				c-5.69,0-11.38-2.24-14.54-5.13c-0.93-0.84-1.59-2.8-0.56-4.2c0.93-1.3,2.8-1.96,4.38-0.75c2.52,1.87,5.59,3.55,10.72,3.55
				c5.41,0,14.36-3.36,14.36-13.43v-2.8c0-0.46-0.28-0.56-0.56-0.28c-3.36,2.7-7.65,4.38-12.31,4.38
				c-10.72,0-19.39-8.67-19.39-19.39v-26.2c0-1.96,1.4-3.35,3.36-3.35c1.86,0,3.17,1.4,3.17,3.35v26.2
				c0,7.08,5.78,12.87,12.87,12.87c7.09,0,12.87-5.78,12.87-12.87V462.62z"/>
		</g>
	</g>
	<rect transform="matrix(-1.836970e-16 1 -1 -1.836970e-16 595.2756 5.684342e-14)" class="st3" width="595.28" height="595.28"/>
</g>
<g>
</g>
<g>
</g>
<g>
</g>
<g>
</g>
<g>
</g>
<g>
</g>
</svg>
