<?xml version="1.0" encoding="utf-8"?>
<!-- Generator: Adobe Illustrator 26.0.0, SVG Export Plug-In . SVG Version: 6.00 Build 0)  -->
<svg version="1.1" id="Layer_1" xmlns="http://www.w3.org/2000/svg" xmlns:xlink="http://www.w3.org/1999/xlink" x="0px" y="0px"
	 viewBox="0 0 566.93 192.76" style="enable-background:new 0 0 566.93 192.76;" xml:space="preserve">
<style type="text/css">
	.st0{fill:none;}
	.st1{fill:#00AEEF;}
	.st2{fill:#ED2024;}
	.st3{fill:#62525B;}
</style>
<g>

		<rect x="187.09" y="-187.09" transform="matrix(-1.836970e-16 1 -1 -1.836970e-16 379.8425 -187.0866)" class="st0" width="192.76" height="566.93"/>
	<g>
		<g>
			<polygon class="st1" points="129.29,86.47 132.92,86.47 134.73,83.33 132.92,80.19 129.29,80.19 127.48,83.33 			"/>
			<polygon class="st1" points="118.05,105.97 121.67,105.97 123.49,102.82 121.67,99.68 118.05,99.68 116.23,102.82 			"/>
			<polygon class="st2" points="88.37,105.4 83.86,105.4 81.61,109.31 83.86,113.21 88.37,113.21 90.63,109.31 			"/>
			<polygon class="st2" points="88.37,79.42 83.86,79.42 81.61,83.33 83.86,87.24 88.37,87.24 90.63,83.33 			"/>
			<polygon class="st2" points="88.37,66.43 83.86,66.43 81.61,70.34 83.86,74.25 88.37,74.25 90.63,70.34 			"/>
			<polygon class="st2" points="88.37,53.45 83.86,53.45 81.61,57.35 83.86,61.26 88.37,61.26 90.63,57.35 			"/>
			<polygon class="st2" points="99.62,98.91 95.11,98.91 92.86,102.81 95.11,106.72 99.62,106.72 101.88,102.81 			"/>
			<polygon class="st2" points="99.62,85.92 95.11,85.92 92.86,89.82 95.11,93.73 99.62,93.73 101.88,89.82 			"/>
			<polygon class="st2" points="99.62,72.93 95.11,72.93 92.86,76.84 95.11,80.74 99.62,80.74 101.88,76.84 			"/>
			<polygon class="st2" points="99.62,59.94 95.11,59.94 92.86,63.85 95.11,67.75 99.62,67.75 101.88,63.85 			"/>
			<polygon class="st2" points="110.87,79.42 106.36,79.42 104.1,83.33 106.36,87.24 110.87,87.24 113.12,83.33 			"/>
			<polygon class="st2" points="110.87,66.44 106.36,66.44 104.1,70.34 106.36,74.25 110.87,74.25 113.12,70.34 			"/>
			<polygon class="st2" points="77.12,98.91 72.61,98.91 70.36,102.81 72.61,106.72 77.12,106.72 79.38,102.81 			"/>
			<polygon class="st2" points="77.12,85.92 72.61,85.92 70.36,89.82 72.61,93.73 77.12,93.73 79.38,89.82 			"/>
			<polygon class="st2" points="77.12,72.93 72.61,72.93 70.36,76.84 72.61,80.74 77.12,80.74 79.38,76.84 			"/>
			<polygon class="st2" points="77.12,59.94 72.61,59.94 70.36,63.85 72.61,67.75 77.12,67.75 79.38,63.85 			"/>
			<polygon class="st2" points="65.88,92.41 61.37,92.41 59.11,96.32 61.37,100.22 65.88,100.22 68.13,96.32 			"/>
			<polygon class="st1" points="133.36,92.41 128.85,92.41 126.6,96.32 128.85,100.22 133.36,100.22 135.62,96.32 			"/>
			<polygon class="st2" points="65.88,79.42 61.37,79.42 59.11,83.33 61.37,87.24 65.88,87.24 68.13,83.33 			"/>
			<polygon class="st2" points="65.88,66.44 61.37,66.44 59.11,70.34 61.37,74.25 65.88,74.25 68.13,70.34 			"/>
			<polygon class="st2" points="54.19,73.69 50.56,73.69 48.74,76.83 50.56,79.97 54.19,79.97 56,76.83 			"/>
			<polygon class="st2" points="54.19,60.7 50.56,60.7 48.74,63.84 50.56,66.99 54.19,66.99 56,63.84 			"/>
			<polygon class="st2" points="54.19,86.69 50.56,86.69 48.74,89.83 50.56,92.97 54.19,92.97 56,89.83 			"/>
			<polygon class="st2" points="54.19,99.68 50.56,99.68 48.74,102.82 50.56,105.97 54.19,105.97 56,102.82 			"/>
			<polygon class="st2" points="121.67,60.7 118.05,60.7 116.23,63.84 118.05,66.99 121.67,66.99 123.49,63.84 			"/>
			<polygon class="st2" points="121.67,86.69 118.05,86.69 116.23,89.83 118.05,92.97 121.67,92.97 123.49,89.83 			"/>
			<polygon class="st2" points="65.43,106.17 61.81,106.17 59.99,109.31 61.81,112.45 65.43,112.45 67.25,109.31 			"/>
			<polygon class="st2" points="76.68,112.66 73.06,112.66 71.24,115.8 73.06,118.94 76.68,118.94 78.5,115.8 			"/>
			<polygon class="st2" points="87.93,119.14 84.3,119.14 82.49,122.28 84.3,125.42 87.93,125.42 89.74,122.28 			"/>
			<polygon class="st2" points="87.93,41.22 84.3,41.22 82.49,44.36 84.3,47.5 87.93,47.5 89.74,44.36 			"/>
			<polygon class="st2" points="99.18,112.66 95.55,112.66 93.74,115.8 95.55,118.95 99.18,118.95 100.99,115.8 			"/>
			<polygon class="st2" points="76.68,47.72 73.06,47.72 71.24,50.86 73.06,54 76.68,54 78.5,50.86 			"/>
			<polygon class="st2" points="99.18,47.73 95.55,47.73 93.74,50.87 95.55,54.01 99.18,54.01 100.99,50.87 			"/>
			<polygon class="st2" points="110.43,106.18 106.8,106.18 104.99,109.33 106.8,112.47 110.43,112.47 112.24,109.33 			"/>
			<polygon class="st2" points="65.43,54.2 61.81,54.2 59.99,57.34 61.81,60.48 65.43,60.48 67.25,57.34 			"/>
			<polygon class="st2" points="110.43,54.22 106.8,54.22 104.99,57.36 106.8,60.5 110.43,60.5 112.24,57.36 			"/>
			<polygon class="st2" points="42.7,67.6 39.54,67.6 37.96,70.34 39.54,73.07 42.7,73.07 44.28,70.34 			"/>
			<polygon class="st2" points="42.7,80.59 39.54,80.59 37.96,83.33 39.54,86.06 42.7,86.06 44.28,83.33 			"/>
			<polygon class="st2" points="42.7,93.58 39.54,93.58 37.96,96.32 39.54,99.05 42.7,99.05 44.28,96.32 			"/>
			<polygon class="st2" points="132.69,67.6 129.53,67.6 127.95,70.34 129.53,73.07 132.69,73.07 134.27,70.34 			"/>
			<polygon class="st2" points="121.44,53.59 123.02,50.86 121.44,48.12 118.28,48.12 116.7,50.86 118.28,53.59 			"/>
			<polygon class="st2" points="110.19,47.1 111.77,44.36 110.19,41.63 107.03,41.63 105.46,44.36 107.03,47.1 			"/>
			<polygon class="st2" points="98.95,40.6 100.52,37.87 98.95,35.13 95.79,35.13 94.21,37.87 95.79,40.6 			"/>
			<polygon class="st2" points="76.45,131.52 78.03,128.79 76.45,126.05 73.29,126.05 71.71,128.79 73.29,131.52 			"/>
			<polygon class="st2" points="65.2,125.03 66.78,122.29 65.2,119.56 62.04,119.56 60.46,122.29 62.04,125.03 			"/>
			<polygon class="st2" points="53.95,118.53 55.53,115.8 53.95,113.06 50.79,113.06 49.21,115.8 50.79,118.53 			"/>
			<polygon class="st2" points="94.21,128.74 95.79,131.47 98.95,131.47 100.52,128.74 98.95,126 95.79,126 			"/>
			<polygon class="st2" points="116.7,115.75 118.28,118.49 121.44,118.49 123.02,115.75 121.44,113.01 118.28,113.01 			"/>
			<polygon class="st2" points="49.21,50.86 50.79,53.59 53.95,53.59 55.53,50.86 53.95,48.12 50.79,48.12 			"/>
			<polygon class="st2" points="60.46,44.36 62.04,47.1 65.2,47.1 66.78,44.36 65.2,41.63 62.04,41.63 			"/>
			<polygon class="st2" points="71.71,37.87 73.29,40.6 76.45,40.6 78.03,37.87 76.45,35.13 73.29,35.13 			"/>
			<polygon class="st1" points="151.35,87.25 155.86,87.25 158.11,83.35 155.86,79.44 151.35,79.44 149.09,83.35 			"/>
			<polygon class="st1" points="151.35,100.24 155.86,100.24 158.11,96.34 155.86,92.43 151.35,92.43 149.09,96.34 			"/>
			<polygon class="st1" points="151.35,113.23 155.86,113.23 158.11,109.32 155.86,105.42 151.35,105.42 149.09,109.32 			"/>
			<polygon class="st1" points="151.35,126.22 155.86,126.22 158.11,122.31 155.86,118.41 151.35,118.41 149.09,122.31 			"/>
			<polygon class="st1" points="151.35,139.21 155.86,139.21 158.11,135.3 155.86,131.39 151.35,131.39 149.09,135.3 			"/>
			<polygon class="st1" points="140.1,106.74 144.61,106.74 146.87,102.83 144.61,98.92 140.1,98.92 137.84,102.83 			"/>
			<polygon class="st1" points="140.1,119.72 144.61,119.72 146.87,115.82 144.61,111.91 140.1,111.91 137.84,115.82 			"/>
			<polygon class="st1" points="140.1,132.71 144.61,132.71 146.87,128.81 144.61,124.9 140.1,124.9 137.84,128.81 			"/>
			<polygon class="st1" points="128.85,113.23 133.36,113.23 135.62,109.32 133.36,105.42 128.85,105.42 126.6,109.32 			"/>
			<polygon class="st1" points="128.85,126.22 133.36,126.22 135.62,122.31 133.36,118.41 128.85,118.41 126.6,122.31 			"/>
			<polygon class="st1" points="162.6,93.75 167.11,93.75 169.36,89.84 167.11,85.93 162.6,85.93 160.34,89.84 			"/>
			<polygon class="st1" points="162.6,106.74 167.11,106.74 169.36,102.83 167.11,98.92 162.6,98.92 160.34,102.83 			"/>
			<polygon class="st1" points="162.6,119.72 167.11,119.72 169.36,115.82 167.11,111.91 162.6,111.91 160.34,115.82 			"/>
			<polygon class="st1" points="162.6,132.71 167.11,132.71 169.36,128.81 167.11,124.9 162.6,124.9 160.34,128.81 			"/>
			<polygon class="st1" points="173.84,100.24 178.36,100.24 180.61,96.33 178.36,92.43 173.84,92.43 171.59,96.33 			"/>
			<polygon class="st1" points="173.84,113.23 178.36,113.23 180.61,109.32 178.36,105.42 173.84,105.42 171.59,109.32 			"/>
			<polygon class="st1" points="173.84,126.22 178.36,126.22 180.61,122.31 178.36,118.41 173.84,118.41 171.59,122.31 			"/>
			<polygon class="st1" points="185.54,118.96 189.16,118.96 190.98,115.82 189.16,112.68 185.54,112.68 183.72,115.82 			"/>
			<polygon class="st1" points="185.54,131.95 189.16,131.95 190.98,128.81 189.16,125.67 185.54,125.67 183.72,128.81 			"/>
			<polygon class="st1" points="185.54,105.97 189.16,105.97 190.98,102.82 189.16,99.68 185.54,99.68 183.72,102.82 			"/>
			<polygon class="st1" points="185.54,92.97 189.16,92.97 190.98,89.83 189.16,86.69 185.54,86.69 183.72,89.83 			"/>
			<polygon class="st1" points="118.05,131.95 121.67,131.95 123.49,128.81 121.67,125.67 118.05,125.67 116.23,128.81 			"/>
			<polygon class="st2" points="118.05,92.97 121.67,92.97 123.49,89.83 121.67,86.69 118.05,86.69 116.23,89.83 			"/>
			<polygon class="st1" points="174.29,86.48 177.91,86.48 179.73,83.34 177.91,80.2 174.29,80.2 172.47,83.34 			"/>
			<polygon class="st1" points="163.04,80 166.67,80 168.48,76.86 166.67,73.72 163.04,73.72 161.22,76.86 			"/>
			<polygon class="st1" points="151.79,73.51 155.42,73.51 157.23,70.37 155.42,67.23 151.79,67.23 149.98,70.37 			"/>
			<polygon class="st1" points="151.79,151.43 155.42,151.43 157.23,148.29 155.42,145.15 151.79,145.15 149.98,148.29 			"/>
			<polygon class="st1" points="140.54,79.99 144.17,79.99 145.98,76.85 144.17,73.71 140.54,73.71 138.73,76.85 			"/>
			<polygon class="st1" points="163.04,144.93 166.67,144.93 168.48,141.79 166.67,138.65 163.04,138.65 161.22,141.79 			"/>
			<polygon class="st1" points="140.54,144.93 144.17,144.93 145.98,141.79 144.17,138.64 140.54,138.64 138.73,141.79 			"/>
			<polygon class="st1" points="174.29,138.45 177.91,138.45 179.73,135.31 177.91,132.17 174.29,132.17 172.47,135.31 			"/>
			<polygon class="st1" points="129.29,138.44 132.92,138.44 134.73,135.29 132.92,132.15 129.29,132.15 127.48,135.29 			"/>
			<polygon class="st1" points="197.02,125.05 200.18,125.05 201.76,122.31 200.18,119.58 197.02,119.58 195.44,122.31 			"/>
			<polygon class="st1" points="197.02,112.06 200.18,112.06 201.76,109.33 200.18,106.59 197.02,106.59 195.44,109.33 			"/>
			<polygon class="st1" points="197.02,99.07 200.18,99.07 201.76,96.34 200.18,93.6 197.02,93.6 195.44,96.34 			"/>
			<polygon class="st1" points="107.03,125.05 110.19,125.05 111.77,122.31 110.19,119.58 107.03,119.58 105.45,122.31 			"/>
			<polygon class="st1" points="107.03,99.07 110.19,99.07 111.77,96.34 110.19,93.6 107.03,93.6 105.45,96.34 			"/>
			<polygon class="st1" points="84.54,99.07 87.7,99.07 89.28,96.34 87.7,93.6 84.54,93.6 82.96,96.34 			"/>
			<polygon class="st1" points="118.28,139.06 116.7,141.8 118.28,144.53 121.44,144.53 123.02,141.8 121.44,139.06 			"/>
			<polygon class="st1" points="129.53,145.56 127.95,148.29 129.53,151.03 132.69,151.03 134.27,148.29 132.69,145.56 			"/>
			<polygon class="st1" points="140.78,152.05 139.2,154.79 140.78,157.52 143.93,157.52 145.51,154.79 143.93,152.05 			"/>
			<polygon class="st1" points="163.27,61.13 161.69,63.87 163.27,66.6 166.43,66.6 168.01,63.87 166.43,61.13 			"/>
			<polygon class="st1" points="174.52,67.62 172.94,70.36 174.52,73.1 177.68,73.1 179.26,70.36 177.68,67.62 			"/>
			<polygon class="st1" points="185.77,74.12 184.19,76.85 185.77,79.59 188.93,79.59 190.51,76.85 188.93,74.12 			"/>
			<polygon class="st1" points="145.51,63.91 143.93,61.18 140.78,61.18 139.2,63.91 140.78,66.65 143.93,66.65 			"/>
			<polygon class="st1" points="123.02,76.9 121.44,74.17 118.28,74.17 116.7,76.9 118.28,79.64 121.44,79.64 			"/>
			<polygon class="st1" points="190.51,141.8 188.93,139.06 185.77,139.06 184.19,141.8 185.77,144.53 188.93,144.53 			"/>
			<polygon class="st1" points="179.26,148.29 177.68,145.56 174.52,145.56 172.94,148.29 174.52,151.03 177.68,151.03 			"/>
			<polygon class="st1" points="168.01,154.79 166.43,152.05 163.27,152.05 161.69,154.79 163.27,157.52 166.43,157.52 			"/>
			<polygon class="st2" points="143.93,87.08 140.78,87.08 139.2,89.82 140.78,92.56 143.93,92.56 145.51,89.82 			"/>
		</g>
		<g>
			<g>
				<g>
					<path class="st3" d="M259.92,124.92v-15.93c0-0.33-0.2-0.4-0.4-0.13c-2.27,3.6-7.2,5.8-11.66,5.8c-9.27,0-16.8-8-16.8-17.86
						c0-9.8,7.53-17.79,16.8-17.79c4.46,0,9.4,2.2,11.66,5.8c0.2,0.27,0.4,0.2,0.4-0.13v-2.6c0-1.4,0.93-2.4,2.27-2.4
						c1.4,0,2.4,1,2.4,2.4v42.86c0,1.4-1,2.4-2.33,2.4C260.92,127.32,259.92,126.32,259.92,124.92z M235.73,96.79
						c0,7.4,5.53,13.2,12.13,13.2c6.6,0,12.06-5.8,12.06-13.2c0-7.33-5.47-13.13-12.06-13.13
						C241.26,83.66,235.73,89.46,235.73,96.79z"/>
				</g>
				<g>
					<path class="st3" d="M305.65,82.06v18.73c0,7.67-6.2,13.86-13.86,13.86s-13.86-6.2-13.86-13.86V82.06c0-1.4,1-2.4,2.4-2.4
						c1.33,0,2.26,1,2.26,2.4v18.73c0,5.06,4.13,9.2,9.2,9.2c5.07,0,9.2-4.13,9.2-9.2V82.06c0-1.4,1-2.4,2.33-2.4
						C304.65,79.66,305.65,80.66,305.65,82.06z"/>
				</g>
				<g>
					<path class="st3" d="M349.84,82.06v29.53c0,1.4-1,2.4-2.4,2.4c-1.33,0-2.27-1-2.27-2.4v-2.6c0-0.33-0.2-0.4-0.4-0.13
						c-2.27,3.6-7.2,5.8-11.66,5.8c-9.27,0-16.8-8-16.8-17.8c0-9.86,7.53-17.86,16.8-17.86c4.47,0,9.4,2.2,11.66,5.8
						c0.2,0.27,0.4,0.2,0.4-0.13v-2.6c0-1.4,1-2.4,2.33-2.4C348.84,79.66,349.84,80.66,349.84,82.06z M345.18,96.86
						c0-7.4-5.46-13.2-12.06-13.2c-6.6,0-12.13,5.8-12.13,13.2c0,7.33,5.53,13.13,12.13,13.13
						C339.71,109.99,345.18,104.19,345.18,96.86z"/>
					<path class="st3" d="M368.51,84.06c0,0.33,0.2,0.4,0.33,0.13c1.33-1.93,5.27-5.2,10.2-5.2c7.67,0,12.53,6.2,12.53,13.86v18.73
						c0,1.4-1,2.4-2.4,2.4c-1.33,0-2.27-1-2.27-2.4V92.86c0-5.13-3.47-9.2-8.53-9.2c-5.13,0-9.87,4.06-9.87,9.2v18.73
						c0,1.4-1,2.4-2.4,2.4c-1.33,0-2.27-1-2.27-2.4V82.06c0-1.4,1-2.4,2.4-2.4c1.33,0,2.27,1,2.27,2.4V84.06z"/>
				</g>
				<g>
					<path class="st3" d="M412.03,84.33c-0.2,0-0.33,0.13-0.33,0.33v20.33c0,2.2,0.4,4.27,2.67,4c1.73-0.2,2.8,0.66,2.87,2.26
						c0.07,1.87-1.73,2.73-3.93,2.73c-3.27,0-6.26-1.53-6.26-6.8V84.66c0-0.2-0.13-0.33-0.33-0.33h-4.07c-1.4,0-2.4-1-2.4-2.33
						c0-1.33,1-2.33,2.4-2.33h4.07c0.2,0,0.33-0.13,0.33-0.33V73c0-1.47,1.07-2.33,2.33-2.33c1.26,0,2.33,0.87,2.33,2.33v6.33
						c0,0.2,0.13,0.33,0.33,0.33h3.93c1.4,0,2.4,1,2.4,2.33c0,1.33-1,2.33-2.4,2.33H412.03z"/>
				</g>
				<g>
					<path class="st3" d="M434.95,111.59c0,1.4-1,2.4-2.33,2.4c-1.33,0-2.33-1-2.33-2.4V82.06c0-1.4,1-2.4,2.33-2.4
						c1.33,0,2.33,1,2.33,2.4V111.59z"/>
				</g>
				<g>
					<path class="st3" d="M452.35,74.93c0-7.47,6.26-10.26,10.2-10.26c1.73,0,3.07,0.87,3.07,2.6v0.07c0,2.07-2,1.8-3.73,1.93
						c-3.07,0.27-4.87,2.8-4.87,7v2.93c0,0.33,0.13,0.47,0.47,0.47h5.53c1.73,0,2.33,1.26,2.33,2.33c0,1.07-0.6,2.33-2.33,2.33
						h-5.53c-0.33,0-0.47,0.13-0.47,0.47v26.86c0,1.07-0.6,2.33-2.33,2.33c-1.73,0-2.33-1.26-2.33-2.33V84.8
						c0-0.33-0.13-0.47-0.47-0.47h-2.66c-1.73,0-2.33-1.27-2.33-2.33c0-1.07,0.6-2.33,2.33-2.33h2.66c0.33,0,0.47-0.13,0.47-0.47
						V74.93z"/>
					<path class="st3" d="M498,82.06c0-1.4,1-2.4,2.33-2.4c1.33,0,2.33,1,2.33,2.4v31.66c0,9.6-8.53,14.26-14.93,14.26
						c-4.06,0-8.13-1.6-10.4-3.67c-0.67-0.6-1.13-2-0.4-3c0.66-0.93,2-1.4,3.13-0.53c1.8,1.33,4,2.53,7.66,2.53
						c3.87,0,10.27-2.4,10.27-9.6v-2c0-0.33-0.2-0.4-0.4-0.2c-2.4,1.93-5.47,3.13-8.8,3.13c-7.66,0-13.86-6.2-13.86-13.86V82.06
						c0-1.4,1-2.4,2.4-2.4c1.33,0,2.26,1,2.26,2.4v18.73c0,5.06,4.13,9.2,9.2,9.2c5.07,0,9.2-4.13,9.2-9.2V82.06z"/>
				</g>
			</g>
		</g>
	</g>
</g>
<g>
</g>
<g>
</g>
<g>
</g>
<g>
</g>
<g>
</g>
<g>
</g>
</svg>
